<svg xmlns="http://www.w3.org/2000/svg" viewBox="0 0 400 400">
  <!-- Градиент для фона -->
  <defs>
    <radialGradient id="bg-gradient" cx="50%" cy="50%" r="70%" fx="50%" fy="50%">
      <stop offset="0%" style="stop-color: #fef6e4;" />
      <stop offset="100%" style="stop-color: #ffd6c1;" />
    </radialGradient>
  </defs>
  
  <!-- Фон с градиентом -->
  <rect width="400" height="400" fill="url(#bg-gradient)" rx="20" />

  <!-- Полный персик -->
  <path xmlns="http://www.w3.org/2000/svg" d="M88.38 66.94l-2.19 23.04l-9.53 21.65l-7.95 9.73s-2.27 1.42-4.21 1.51c-1.95.08-16.45-4.09-29.36-12.83S11.98 90.83 7.53 79.06c-5.56-14.7-5.76-36.95 7.55-49.26S41.5 15.7 52.62 18.08s14.5 6.16 16.69 7.95s11.52 13.11 11.52 13.11l7.35 18.87l.2 8.93z" fill="url(#peach-gradient)">

</path>
  <!-- Половинка персика -->
  <path d="M320,250 a40,40 0 1,0 -80,0 a40,40 0 1,0 80,0" fill="url(#half-peach-gradient)" />

  <!-- Нарезанный персик -->
  <path d="M220,150 l30,0 l-15,30 l-15,-30 z" fill="url(#sliced-peach-gradient)" />

  <!-- Другие персики для мелких элементов -->
  <circle cx="320" cy="100" r="20" fill="url(#peach-gradient)" />
  <circle cx="80" cy="300" r="30" fill="url(#peach-gradient)" />
  <circle cx="200" cy="350" r="15" fill="url(#half-peach-gradient)" />

  <!-- Градиенты для персиков -->
  <defs>
    <radialGradient id="peach-gradient" cx="50%" cy="50%" r="50%" fx="50%" fy="50%">
      <stop offset="0%" style="stop-color: #ffa07a;" />
      <stop offset="100%" style="stop-color: #ff6347;" />
    </radialGradient>
    <radialGradient id="half-peach-gradient" cx="50%" cy="50%" r="50%" fx="50%" fy="50%">
      <stop offset="0%" style="stop-color: #ffdab9;" />
      <stop offset="100%" style="stop-color: #ff6347;" />
    </radialGradient>
    <radialGradient id="sliced-peach-gradient" cx="50%" cy="50%" r="50%" fx="50%" fy="50%">
      <stop offset="0%" style="stop-color: #ff9966;" />
      <stop offset="100%" style="stop-color: #ff6347;" />
    </radialGradient>
  </defs>
</svg>